<svg width="36" height="36" viewBox="0 0 36 36" fill="none" xmlns="http://www.w3.org/2000/svg">
<g clip-path="url(#clip0_87_1125)">
<path d="M7.5 10.5C7.5 12.0913 8.13214 13.6174 9.25736 14.7426C10.3826 15.8679 11.9087 16.5 13.5 16.5C15.0913 16.5 16.6174 15.8679 17.7426 14.7426C18.8679 13.6174 19.5 12.0913 19.5 10.5C19.5 8.9087 18.8679 7.38258 17.7426 6.25736C16.6174 5.13214 15.0913 4.5 13.5 4.5C11.9087 4.5 10.3826 5.13214 9.25736 6.25736C8.13214 7.38258 7.5 8.9087 7.5 10.5Z" stroke="#FF7B9C" stroke-width="2" stroke-linecap="round" stroke-linejoin="round"/>
<path d="M4.5 31.5V28.5C4.5 26.9087 5.13214 25.3826 6.25736 24.2574C7.38258 23.1321 8.9087 22.5 10.5 22.5H16.5C18.0913 22.5 19.6174 23.1321 20.7426 24.2574C21.8679 25.3826 22.5 26.9087 22.5 28.5V31.5" stroke="#FF7B9C" stroke-width="2" stroke-linecap="round" stroke-linejoin="round"/>
<path d="M24 4.69482C25.2906 5.02528 26.4346 5.77588 27.2515 6.82829C28.0684 7.8807 28.5118 9.17507 28.5118 10.5073C28.5118 11.8396 28.0684 13.1339 27.2515 14.1864C26.4346 15.2388 25.2906 15.9894 24 16.3198" stroke="#FF7B9C" stroke-width="2" stroke-linecap="round" stroke-linejoin="round"/>
<path d="M31.5 31.5001V28.5001C31.4924 27.1758 31.0469 25.8913 30.2329 24.8467C29.4189 23.8021 28.2822 23.0561 27 22.7251" stroke="#FF7B9C" stroke-width="2" stroke-linecap="round" stroke-linejoin="round"/>
</g>
<defs>
<clipPath id="clip0_87_1125">
<rect width="36" height="36" fill="white"/>
</clipPath>
</defs>
</svg>
